<svg width="202" height="96" viewBox="0 0 202 96" fill="none" xmlns="http://www.w3.org/2000/svg">
<g clip-path="url(#clip0_5_39)">
<path d="M76.68 55.48C74.344 55.48 72.232 54.952 70.344 53.896C68.488 52.808 67 51.352 65.88 49.528C64.792 47.672 64.248 45.608 64.248 43.336C64.248 41.064 64.792 39.032 65.88 37.24C66.968 35.416 68.456 33.976 70.344 32.92C72.232 31.832 74.328 31.288 76.632 31.288C79 31.288 81.112 31.832 82.968 32.92C84.856 33.976 86.344 35.416 87.432 37.24C88.52 39.032 89.064 41.064 89.064 43.336C89.064 45.608 88.52 47.672 87.432 49.528C86.344 51.352 84.856 52.808 82.968 53.896C81.112 54.952 79.016 55.48 76.68 55.48ZM76.632 49.624C77.816 49.624 78.856 49.368 79.752 48.856C80.68 48.312 81.384 47.576 81.864 46.648C82.376 45.688 82.632 44.6 82.632 43.384C82.632 42.168 82.376 41.096 81.864 40.168C81.352 39.24 80.648 38.52 79.752 38.008C78.856 37.464 77.816 37.192 76.632 37.192C75.48 37.192 74.456 37.464 73.56 38.008C72.664 38.52 71.96 39.24 71.448 40.168C70.936 41.096 70.68 42.168 70.68 43.384C70.68 44.6 70.936 45.688 71.448 46.648C71.96 47.576 72.664 48.312 73.56 48.856C74.456 49.368 75.48 49.624 76.632 49.624ZM108.712 55V41.704C108.712 40.328 108.28 39.208 107.416 38.344C106.552 37.48 105.432 37.048 104.056 37.048C103.16 37.048 102.36 37.24 101.656 37.624C100.952 38.008 100.392 38.552 99.9761 39.256C99.5921 39.96 99.4001 40.776 99.4001 41.704L96.9521 40.456C96.9521 38.632 97.3361 37.048 98.1041 35.704C98.9041 34.328 99.9921 33.256 101.368 32.488C102.776 31.72 104.36 31.336 106.12 31.336C107.816 31.336 109.336 31.768 110.68 32.632C112.024 33.464 113.08 34.568 113.848 35.944C114.616 37.288 115 38.744 115 40.312V55H108.712ZM93.1121 55V31.816H99.4001V55H93.1121ZM131.153 55.48C128.721 55.48 126.561 54.968 124.673 53.944C122.785 52.888 121.281 51.448 120.161 49.624C119.073 47.8 118.529 45.72 118.529 43.384C118.529 41.08 119.057 39.032 120.113 37.24C121.201 35.416 122.673 33.976 124.529 32.92C126.385 31.832 128.449 31.288 130.721 31.288C132.961 31.288 134.929 31.8 136.625 32.824C138.353 33.816 139.697 35.192 140.657 36.952C141.649 38.68 142.145 40.648 142.145 42.856C142.145 43.272 142.113 43.704 142.049 44.152C142.017 44.568 141.937 45.048 141.809 45.592L122.321 45.64V40.936L138.881 40.888L136.337 42.856C136.273 41.48 136.017 40.328 135.569 39.4C135.153 38.472 134.529 37.768 133.697 37.288C132.897 36.776 131.905 36.52 130.721 36.52C129.473 36.52 128.385 36.808 127.457 37.384C126.529 37.928 125.809 38.712 125.297 39.736C124.817 40.728 124.577 41.912 124.577 43.288C124.577 44.696 124.833 45.928 125.345 46.984C125.889 48.008 126.657 48.808 127.649 49.384C128.641 49.928 129.793 50.2 131.105 50.2C132.289 50.2 133.361 50.008 134.321 49.624C135.281 49.208 136.113 48.6 136.817 47.8L140.513 51.496C139.393 52.808 138.017 53.8 136.385 54.472C134.785 55.144 133.041 55.48 131.153 55.48ZM148.88 55V22.168H155.168V55H148.88ZM143.456 37.336V31.816H160.592V37.336H143.456ZM174.461 55.48C172.125 55.48 170.013 54.952 168.125 53.896C166.269 52.808 164.781 51.352 163.661 49.528C162.573 47.672 162.029 45.608 162.029 43.336C162.029 41.064 162.573 39.032 163.661 37.24C164.749 35.416 166.237 33.976 168.125 32.92C170.013 31.832 172.109 31.288 174.413 31.288C176.781 31.288 178.893 31.832 180.749 32.92C182.637 33.976 184.125 35.416 185.213 37.24C186.301 39.032 186.845 41.064 186.845 43.336C186.845 45.608 186.301 47.672 185.213 49.528C184.125 51.352 182.637 52.808 180.749 53.896C178.893 54.952 176.797 55.48 174.461 55.48ZM174.413 49.624C175.597 49.624 176.637 49.368 177.533 48.856C178.461 48.312 179.165 47.576 179.645 46.648C180.157 45.688 180.413 44.6 180.413 43.384C180.413 42.168 180.157 41.096 179.645 40.168C179.133 39.24 178.429 38.52 177.533 38.008C176.637 37.464 175.597 37.192 174.413 37.192C173.261 37.192 172.237 37.464 171.341 38.008C170.445 38.52 169.741 39.24 169.229 40.168C168.717 41.096 168.461 42.168 168.461 43.384C168.461 44.6 168.717 45.688 169.229 46.648C169.741 47.576 170.445 48.312 171.341 48.856C172.237 49.368 173.261 49.624 174.413 49.624Z" fill="#CECECE"/>
</g>
<g clip-path="url(#clip1_5_39)">
<g filter="url(#filter0_d_5_39)">
<path d="M12 44C12 24.1659 28.1659 8 48 8C58.9358 8 68.7565 12.9145 75.3672 20.6486L69.5 26.0246C64.3714 19.8903 56.656 16 48 16C32.4901 16 20 28.4901 20 44C20 59.5099 32.4901 72 48 72C49.1357 72 50.2962 71.9083 51.5 71.7578L56 71.1953V76.5547C60.9096 72.7361 66.285 67.9296 70.217 62L76.5 67.3762C69.8543 77.4514 60.2791 84.4947 54.1562 88.4219L48 92.3672V80C28.1659 80 12 63.8341 12 44Z" fill="#9077F7"/>
</g>
<path d="M48.45 62.75C44.75 62.75 41.425 61.925 38.475 60.275C35.525 58.625 33.2 56.375 31.5 53.525C29.8 50.675 28.95 47.475 28.95 43.925C28.95 40.325 29.8 37.1 31.5 34.25C33.2 31.4 35.525 29.15 38.475 27.5C41.475 25.8 44.8 24.95 48.45 24.95C51.3 24.95 53.925 25.475 56.325 26.525C58.725 27.575 60.8 29.075 62.55 31.025L56.25 37.4C55.3 36.35 54.15 35.55 52.8 35C51.5 34.45 50.05 34.175 48.45 34.175C46.65 34.175 45.025 34.6 43.575 35.45C42.175 36.25 41.05 37.375 40.2 38.825C39.4 40.225 39 41.9 39 43.85C39 45.75 39.4 47.45 40.2 48.95C41.05 50.4 42.175 51.55 43.575 52.4C45.025 53.2 46.65 53.6 48.45 53.6C50.1 53.6 51.575 53.325 52.875 52.775C54.225 52.175 55.375 51.325 56.325 50.225L62.7 56.6C60.85 58.6 58.725 60.125 56.325 61.175C53.925 62.225 51.3 62.75 48.45 62.75Z" fill="#2FED86"/>
</g>
<defs>
<filter id="filter0_d_5_39" x="8" y="8" width="72.5" height="92.3672" filterUnits="userSpaceOnUse" color-interpolation-filters="sRGB">
<feFlood flood-opacity="0" result="BackgroundImageFix"/>
<feColorMatrix in="SourceAlpha" type="matrix" values="0 0 0 0 0 0 0 0 0 0 0 0 0 0 0 0 0 0 127 0" result="hardAlpha"/>
<feOffset dy="4"/>
<feGaussianBlur stdDeviation="2"/>
<feComposite in2="hardAlpha" operator="out"/>
<feColorMatrix type="matrix" values="0 0 0 0 1 0 0 0 0 1 0 0 0 0 1 0 0 0 0.25 0"/>
<feBlend mode="normal" in2="BackgroundImageFix" result="effect1_dropShadow_5_39"/>
<feBlend mode="normal" in="SourceGraphic" in2="effect1_dropShadow_5_39" result="shape"/>
</filter>
<clipPath id="clip0_5_39">
<rect width="123" height="34" fill="white" transform="translate(64 22)"/>
</clipPath>
<clipPath id="clip1_5_39">
<rect width="96" height="96" fill="white"/>
</clipPath>
</defs>
</svg>
