<svg width="96" height="96" viewBox="0 0 96 96" fill="none" xmlns="http://www.w3.org/2000/svg">
<g clip-path="url(#clip0_5_39)">
<path d="M12 44C12 24.1659 28.1659 8 48 8C58.9358 8 68.7565 12.9145 75.3672 20.6486L69.5 26.0246C64.3714 19.8903 56.656 16 48 16C32.4901 16 20 28.4901 20 44C20 59.5099 32.4901 72 48 72C49.1357 72 50.2962 71.9083 51.5 71.7578L56 71.1953V76.5547C60.9096 72.7361 66.285 67.9296 70.217 62L76.5 67.3762C69.8543 77.4514 60.2791 84.4947 54.1562 88.4219L48 92.3672V80C28.1659 80 12 63.8341 12 44Z" fill="#5D3AE9"/>
<path d="M48.45 62.75C44.75 62.75 41.425 61.925 38.475 60.275C35.525 58.625 33.2 56.375 31.5 53.525C29.8 50.675 28.95 47.475 28.95 43.925C28.95 40.325 29.8 37.1 31.5 34.25C33.2 31.4 35.525 29.15 38.475 27.5C41.475 25.8 44.8 24.95 48.45 24.95C51.3 24.95 53.925 25.475 56.325 26.525C58.725 27.575 60.8 29.075 62.55 31.025L56.25 37.4C55.3 36.35 54.15 35.55 52.8 35C51.5 34.45 50.05 34.175 48.45 34.175C46.65 34.175 45.025 34.6 43.575 35.45C42.175 36.25 41.05 37.375 40.2 38.825C39.4 40.225 39 41.9 39 43.85C39 45.75 39.4 47.45 40.2 48.95C41.05 50.4 42.175 51.55 43.575 52.4C45.025 53.2 46.65 53.6 48.45 53.6C50.1 53.6 51.575 53.325 52.875 52.775C54.225 52.175 55.375 51.325 56.325 50.225L62.7 56.6C60.85 58.6 58.725 60.125 56.325 61.175C53.925 62.225 51.3 62.75 48.45 62.75Z" fill="#2FED86"/>
</g>
<defs>
<clipPath id="clip0_5_39">
<rect width="96" height="96" fill="white"/>
</clipPath>
</defs>
</svg>
